<svg height="512" viewBox="0 0 64 64" width="512" xmlns="http://www.w3.org/2000/svg"><g id="flat"><path d="m24 31v3l2 2v3l2 4h8l2-4v-3l2-2v-3z" fill="#394d5c"/><path d="m26 21h4v10h-4z" fill="#f9bb4b"/><path d="m34 21h4v10h-4z" fill="#f9bb4b"/><path d="m29 34h6v2h-6z" fill="#7d8d9c"/><path d="m29 38h6v2h-6z" fill="#7d8d9c"/><path d="m28 43h8v4h-8z" fill="#aabece"/><path d="m30 47h4v4h-4z" fill="#394d5c"/><path d="m30 51h4v10h-4z" fill="#7d8d9c"/><path d="m31 3h5l-3 5h5l-7 9v-5h-5z" fill="#fcf05a"/><g fill="#e97424"><path d="m14 24h5v2h-5z"/><path d="m17 17h1.999v5h-1.999z" transform="matrix(.6 -.8 .8 .6 -8.4 22.2)"/><path d="m15.5 29.5h5v1.999h-5z" transform="matrix(.8 -.6 .6 .8 -14.697 16.894)"/><path d="m45 24h5v2h-5z"/><path d="m43.5 18.5h5v1.999h-5z" transform="matrix(.8 -.6 .6 .8 -2.502 31.491)"/><path d="m45 28h1.999v5h-1.999z" transform="matrix(.6 -.8 .8 .6 -6 49)"/></g></g></svg>