<svg id="Capa_1" enable-background="new 0 0 497 497" height="512" viewBox="0 0 497 497" width="512" xmlns="http://www.w3.org/2000/svg"><g><path d="m346 0c-12.426 0-22.5 10.073-22.5 22.5v82.5l22.5 30 22.5-30v-82.5c0-12.427-10.073-22.5-22.5-22.5z" fill="#bdf7f7"/><path d="m323.5 105h45v75h-45z" fill="#26abff"/><path d="m151 0c-12.426 0-22.5 10.073-22.5 22.5v82.5l22.5 30 22.5-30v-82.5c0-12.427-10.074-22.5-22.5-22.5z" fill="#bdf7f7"/><path d="m128.5 105h45v75h-45z" fill="#26abff"/><path d="m203.5 407 60 90h22.5c4.142 0 7.5-3.358 7.5-7.5v-82.5z" fill="#3b7bc1"/><path d="m203.5 407v82.5c0 4.142 3.358 7.5 7.5 7.5h52.5v-90z" fill="#3193e0"/><path d="m218.5 362v75h90v-45z" fill="#3193e0"/><path d="m188.5 392v45h90v-75z" fill="#26abff"/><path d="m218.5 332 60 60h30v-60z" fill="#3b7bc1"/><path d="m188.5 332h90v60h-90z" fill="#3193e0"/><path d="m368.5 150-21.67 167.28 30-35c13.984-16.314 21.67-37.092 21.67-58.58v-66.2c0-4.142-3.358-7.5-7.5-7.5z" fill="#504b83"/><path d="m368.5 150v108.71c0 21.48-7.69 42.26-21.67 58.57l-38.33 44.72h-120l-68.33-79.72c-13.98-16.31-21.67-37.09-21.67-58.57v-66.21c0-4.142 3.358-7.5 7.5-7.5h120l22.5 15 22.5-15z" fill="#4663a2"/><path d="m226 150h45v90h-45z" fill="#bdf7f7"/><path d="m308.5 452h-30v-30h30c8.284 0 15 6.716 15 15s-6.716 15-15 15z" fill="#504b83"/><path d="m278.5 422h-90c-8.284 0-15 6.716-15 15s6.716 15 15 15h90c8.284 0 15-6.716 15-15s-6.716-15-15-15z" fill="#4663a2"/></g></svg>