<svg id="Capa_1" enable-background="new 0 0 512 512" height="512" viewBox="0 0 512 512" width="512" xmlns="http://www.w3.org/2000/svg"><g><path d="m406 150h-22.5v-120c0-16.542-13.458-30-30-30s-30 13.458-30 30v120h-135v-120c0-16.542-13.458-30-30-30s-30 13.458-30 30v120h-22.5c-4.142 0-7.5 3.358-7.5 7.5v73.707c0 23.258 8.336 45.793 23.473 63.453l66.527 77.615v51.011c-8.73 3.095-15 11.437-15 21.215 0 12.407 10.093 22.5 22.5 22.5h7.5v37.5c0 4.142 3.358 7.5 7.5 7.5h90c4.143 0 7.5-3.358 7.5-7.5v-37.501h7.5c12.406 0 22.5-10.093 22.5-22.5 0-9.778-6.27-18.12-15-21.215v-51.011l66.527-77.616c15.137-17.66 23.473-40.194 23.473-63.452v-73.706c0-4.142-3.357-7.5-7.5-7.5zm-52.5-135c8.271 0 15 6.729 15 15v75h-30v-75c0-8.271 6.729-15 15-15zm-15 105h30v30h-30zm-97.5 45h30v75h-30zm-82.5-150c8.271 0 15 6.729 15 15v75h-30v-75c0-8.271 6.729-15 15-15zm-15 105h30v30h-30zm150 377h-75v-30h75zm22.5-45h-120c-4.136 0-7.5-3.364-7.5-7.5s3.364-7.5 7.5-7.5c4.142 0 7.5-3.358 7.5-7.5v-22.5h105v15h-82.5c-4.142 0-7.5 3.358-7.5 7.5s3.358 7.5 7.5 7.5h90c4.136 0 7.5 3.364 7.5 7.5s-3.364 7.5-7.5 7.5zm-112.5-75h105v15h-105zm195-145.793c0 19.68-7.054 38.748-19.861 53.69l-66.088 77.103h-113.102l-66.088-77.102c-12.808-14.943-19.861-34.011-19.861-53.691v-66.207h112.5v82.5c0 4.142 3.358 7.5 7.5 7.5h45c4.143 0 7.5-3.358 7.5-7.5v-82.5h112.5z"/></g></svg>