<?xml version="1.0" encoding="iso-8859-1"?>
<!-- Generator: Adobe Illustrator 19.0.0, SVG Export Plug-In . SVG Version: 6.00 Build 0)  -->
<svg version="1.1" id="Capa_1" xmlns="http://www.w3.org/2000/svg" xmlns:xlink="http://www.w3.org/1999/xlink" x="0px" y="0px"
	 viewBox="0 0 480.003 480.003" style="enable-background:new 0 0 480.003 480.003;" xml:space="preserve">
<g>
	<g>
		<path d="M395.203,359.907c8.441-9.466,8.059-23.866-0.872-32.872l-23.72-23.72c31.763-41.387,27.98-99.895-8.848-136.848
			L259.315,64.003l2.064-2.064c14.169-14.169,14.169-37.143,0-51.312c-14.169-14.169-37.143-14.169-51.312,0l-42.064,42.064
			L122.627,7.315c-9.751-9.751-25.561-9.751-35.312,0c-9.751,9.751-9.751,25.561,0,35.312l45.376,45.376l-44.688,44.688
			L42.627,87.315c-9.751-9.751-25.561-9.751-35.312,0c-9.751,9.751-9.751,25.561,0,35.312l45.376,45.376l-42.064,42.064
			c-14.169,14.169-14.169,37.143,0,51.312c14.169,14.169,37.143,14.169,51.312,0l2.064-2.064l102.464,102.464
			c36.922,36.896,95.483,40.683,136.848,8.848l23.72,23.72c8.973,9.006,23.434,9.39,32.872,0.872l84.784,84.784h35.312v-35.312
			L395.203,359.907z M98.627,31.315c-3.504-3.504-3.504-9.184,0-12.688c3.504-3.504,9.184-3.504,12.688,0l45.376,45.376
			l-12.688,12.688L98.627,31.315z M18.627,111.315c-3.504-3.504-3.504-9.184,0-12.688c3.504-3.504,9.184-3.504,12.688,0
			l45.376,45.376l-12.688,12.688L18.627,111.315z M52.691,248.003l-2.064,2.064c-8.047,7.797-20.891,7.595-28.688-0.452
			c-7.624-7.868-7.624-20.368,0-28.236l42.064-42.064l35.312-35.312l44.688-44.688l35.312-35.312l42.064-42.064
			c8.047-7.797,20.891-7.595,28.688,0.452c7.624,7.868,7.624,20.368,0,28.236l-2.064,2.064L52.691,248.003z M302.235,350.467
			c-34.39,34.312-90.066,34.312-124.456,0L75.315,248.003L248.003,75.315l102.464,102.464c34.312,34.39,34.312,90.065,0,124.456
			L302.235,350.467z M349.659,383.035c-3.124,3.123-8.188,3.123-11.312,0l-23.032-23.032l44.688-44.688l23.032,23.032
			c3.123,3.124,3.123,8.188,0,11.312L349.659,383.035z M464.003,464.003h-12.688l-80-80l12.688-12.688l80,80V464.003z"/>
	</g>
</g>
<g>
	<g>
		<path d="M295.859,294.523l-24-128c-0.821-4.341-5.006-7.195-9.347-6.374c-1.577,0.298-3.029,1.064-4.165,2.198l-23.424,23.424
			l-11.496-28.736c-1-2.497-3.188-4.325-5.824-4.864c-2.634-0.559-5.371,0.261-7.264,2.176l-40,40
			c-2.263,2.261-2.961,5.653-1.776,8.624l32,80c1.639,4.103,6.293,6.101,10.397,4.462c1.008-0.403,1.924-1.006,2.691-1.774
			l26.352-26.344l42.344,42.344c3.129,3.119,8.194,3.112,11.314-0.017C295.521,299.776,296.343,297.113,295.859,294.523z
			 M245.659,242.347c-3.124-3.123-8.188-3.123-11.312,0l-23.424,23.424l-25.528-63.832l27.688-27.696l11.496,28.736
			c1.639,4.103,6.293,6.101,10.397,4.462c1.008-0.403,1.924-1.006,2.691-1.774l21.272-21.272l16.448,87.672L245.659,242.347z"/>
	</g>
</g>
<g>
</g>
<g>
</g>
<g>
</g>
<g>
</g>
<g>
</g>
<g>
</g>
<g>
</g>
<g>
</g>
<g>
</g>
<g>
</g>
<g>
</g>
<g>
</g>
<g>
</g>
<g>
</g>
<g>
</g>
</svg>
