<svg id="Capa_1" enable-background="new 0 0 512 512" height="512" viewBox="0 0 512 512" width="512" xmlns="http://www.w3.org/2000/svg"><g><path d="m90.885 300.901c-22.813 29.743-20.028 72.159 6.477 98.664l16.11 16.11c26.421 26.421 68.834 29.358 98.665 6.478l28.248-21.666-127.834-127.834z"/><path d="m73.506 418.004-69.023 68.34c-9.505 9.411-2.766 25.656 10.553 25.656 3.813 0 7.629-1.445 10.553-4.34l69.109-68.424c-2.097-1.967-18.385-18.214-21.192-21.232z"/><path d="m441 228.985 57.204-57.263c8.89-8.89 13.777-20.705 13.765-33.271-.014-12.539-4.901-24.326-13.765-33.188-18.322-18.324-48.135-18.323-66.464.005l-57.199 57.257z"/><path d="m350.509 138.49 57.265-57.265c8.876-8.876 13.765-20.854 13.765-33.73 0-12.874-4.889-24.853-13.764-33.729 0 0 0 0-.001-.001-8.862-8.864-20.648-13.751-33.187-13.765-.017 0-.033 0-.05 0-12.548 0-24.345 4.887-33.222 13.765-.026.025-.052.052-.077.078l-57.268 58.112z"/><path d="m245.941 76.345c-2.193-2.193-5.607-2.532-8.222-.865-3.175 2.023-6.117 4.461-8.758 7.294-40.999 43.929-64.762 75.823-70.636 94.8-3.257 10.534-4.934 18.299-6.415 25.149-2.974 13.762-4.774 22.1-18.868 43.209l-2.08 2.711 133.427 133.427 2.716-2.083c21.103-14.083 29.443-15.886 43.202-18.858 6.853-1.48 14.619-3.159 25.16-6.417 18.948-5.862 50.842-29.627 94.796-70.633.002-.001.004-.003.006-.005 2.831-2.644 5.267-5.587 7.289-8.761 1.665-2.615 1.325-6.028-.867-8.22zm59.823 197.388c-8.875 8.875-20.676 13.764-33.229 13.764s-24.354-4.889-33.23-13.765c-18.323-18.322-18.323-48.136-.001-66.459.001 0 .001 0 .001-.001 18.324-18.323 48.138-18.323 66.459.001 8.876 8.876 13.765 20.677 13.765 33.23.002 12.551-4.889 24.354-13.765 33.23z"/><ellipse cx="272.546" cy="240.513" rx="16.988" ry="16.988" transform="matrix(.16 -.987 .987 .16 -8.519 471.014)"></g></svg>